<?xml version="1.0" standalone="no"?>
<!DOCTYPE svg PUBLIC "-//W3C//DTD SVG 20010904//EN"
 "http://www.w3.org/TR/2001/REC-SVG-20010904/DTD/svg10.dtd">
<svg version="1.0" xmlns="http://www.w3.org/2000/svg"
 width="48.000000pt" height="48.000000pt" viewBox="0 0 48.000000 48.000000"
 preserveAspectRatio="xMidYMid meet">
<metadata>
Created by potrace 1.15, written by Peter Selinger 2001-2017
</metadata>
<g transform="translate(0.000000,48.000000) scale(0.100000,-0.100000)"
fill="#000000" stroke="none">
<path d="M195 403 c-16 -2 -35 -10 -40 -16 -6 -7 -19 -17 -30 -23 -11 -6 -22
-20 -24 -30 -2 -10 -9 -22 -15 -26 -15 -8 -19 -105 -6 -113 5 -3 7 -12 3 -21
-6 -17 58 -84 81 -84 8 0 18 -4 21 -10 8 -13 115 -13 115 0 0 6 11 10 25 10
15 0 28 7 32 18 4 9 15 24 25 32 22 18 37 153 18 165 -6 4 -15 18 -20 31 -6
14 -18 27 -27 31 -10 4 -22 12 -28 19 -11 14 -85 23 -130 17z"/>
</g>
</svg>
