<svg id="Layer_1" data-name="Layer 1" xmlns="http://www.w3.org/2000/svg" viewBox="0 0 48 48"><defs><style>.cls-1{fill:#db9d01;}.cls-2{fill:#ffb600;}.cls-3{fill:#1a1a1a;}.cls-4{fill:#e8eace;}.cls-5{fill:#423f40;}.cls-6{fill:#fff;}</style></defs><title>BadgieX48</title><polygon class="cls-1" points="28.45 46 21 30.25 31.47 25.3 38.91 41.05 32.48 40.98 28.45 46"/><polygon class="cls-2" points="21.83 45.9 29.23 30.25 18.83 25.34 11.43 40.99 17.82 40.92 21.83 45.9"/><path class="cls-3" d="M23.79,2.74c.4,0,1-.77,1.43-.74s.92.87,1.32.93,1.15-.58,1.54-.49.76,1,1.15,1.14,1.22-.39,1.6-.24.58,1.13.94,1.31,1.28-.18,1.62,0,.39,1.2.71,1.45,1.29,0,1.59.29.19,1.26.47,1.55,1.27.24,1.52.56,0,1.26.2,1.6,1.21.44,1.41.8-.23,1.24-.06,1.61,1.12.64,1.25,1-.42,1.19-.32,1.58,1,.82,1.07,1.21-.62,1.11-.58,1.51.85,1,.86,1.37-.8,1-.83,1.39.69,1.1.62,1.5-.94.84-1,1.23.49,1.19.36,1.58-1.07.67-1.23,1,.29,1.25.1,1.61-1.17.49-1.38.83S38.2,29.72,38,30s-1.23.29-1.5.6-.14,1.28-.43,1.55-1.26.09-1.58.34-.34,1.24-.68,1.47-1.26-.13-1.61.07-.54,1.17-.91,1.34-1.23-.33-1.61-.2-.72,1.07-1.12,1.17-1.15-.53-1.55-.45-.89.92-1.29,1-1.05-.71-1.46-.7-1,.77-1.43.74-.92-.87-1.32-.93-1.15.58-1.54.49-.76-1-1.15-1.14-1.22.39-1.6.24-.58-1.13-.94-1.31-1.28.18-1.62,0-.39-1.2-.71-1.45-1.29,0-1.59-.29-.19-1.26-.47-1.55-1.26-.24-1.52-.56,0-1.26-.2-1.6-1.21-.44-1.41-.8.23-1.24.06-1.61-1.12-.64-1.25-1,.42-1.19.32-1.58-1-.81-1.07-1.21.62-1.11.58-1.51-.85-1-.86-1.37.8-1,.83-1.39-.69-1.1-.62-1.49.94-.85,1-1.24-.5-1.19-.37-1.58,1.07-.67,1.23-1.05-.29-1.25-.1-1.61,1.17-.49,1.38-.83-.08-1.29.17-1.61,1.23-.29,1.5-.59S11.69,7,12,6.74s1.26-.09,1.58-.34.34-1.24.68-1.47,1.26.13,1.61-.07.54-1.17.91-1.34,1.23.33,1.61.2.73-1.07,1.12-1.17S20.64,3.08,21,3s.89-.92,1.29-1S23.38,2.75,23.79,2.74Z"/><path class="cls-4" d="M38.25,19.47A14.25,14.25,0,1,1,24,5.21,14.25,14.25,0,0,1,38.25,19.47Z"/><path class="cls-2" d="M37.28,19.47A13.28,13.28,0,1,1,24,6.19,13.28,13.28,0,0,1,37.28,19.47Z"/><path class="cls-2" d="M24,34.86a15.34,15.34,0,0,1-6-1.21,15.18,15.18,0,0,1-4.9-3.3,15.37,15.37,0,0,1,0-21.77A15.18,15.18,0,0,1,18,5.28a15.43,15.43,0,0,1,12,0,15.18,15.18,0,0,1,4.9,3.3,15.37,15.37,0,0,1,0,21.77,15.18,15.18,0,0,1-4.9,3.3A15.34,15.34,0,0,1,24,34.86ZM24,4.28A15.19,15.19,0,1,0,39.18,19.47,15.2,15.2,0,0,0,24,4.28Z"/><rect class="cls-5" x="15.55" y="14.25" width="17.03" height="0.17"/><rect class="cls-5" x="26.59" y="24.9" width="5.94" height="0.13"/><path class="cls-5" d="M32.54,25H26.59V24.9h5.95ZM26.6,25h5.93v-.11H26.6Z"/><rect class="cls-5" x="15.51" y="24.9" width="5.91" height="0.13"/><path class="cls-5" d="M21.42,25H15.5V24.9h5.92Zm-5.91,0h5.9v-.11h-5.9Z"/><path class="cls-4" d="M24.67,25a.65.65,0,1,1-.64-.64A.65.65,0,0,1,24.67,25Z"/><path class="cls-5" d="M26.09,25a.44.44,0,1,1-.44-.45A.44.44,0,0,1,26.09,25Z"/><path class="cls-5" d="M22.83,25a.44.44,0,0,1-.44.44.45.45,0,1,1,.44-.44Z"/><path class="cls-6" d="M12.64,23V15.92h1.59a2.06,2.06,0,0,1,1.15.33,1.58,1.58,0,0,1,.62.88,2.72,2.72,0,0,1,.1.75A1.69,1.69,0,0,1,15.72,19a1.07,1.07,0,0,1-.37.27,1.23,1.23,0,0,1,.6.54,2,2,0,0,1,.24.7,2.49,2.49,0,0,1,0,.49A2.34,2.34,0,0,1,16,22.16a1.51,1.51,0,0,1-.56.59,1.59,1.59,0,0,1-.81.25Zm1.15-4.19h.44a.65.65,0,0,0,.67-.49,1.42,1.42,0,0,0,.06-.44.94.94,0,0,0-.21-.67.67.67,0,0,0-.52-.21h-.44Zm0,3.13h.44a.75.75,0,0,0,.76-.56,1.45,1.45,0,0,0,.07-.44,1.34,1.34,0,0,0-.23-.86.7.7,0,0,0-.6-.25h-.44Z"/><path class="cls-6" d="M18.34,21.37,18.08,23H17l1.2-7.08h1.47L20.82,23H19.7l-.25-1.63Zm.56-3.83-.4,2.79h.79Z"/><path class="cls-6" d="M25.08,21.3a1.64,1.64,0,0,1-.5,1.2,1.59,1.59,0,0,1-1.18.5H21.72V15.92H23.4a1.61,1.61,0,0,1,1.19.49,1.67,1.67,0,0,1,.49,1.2Zm-2.29.64h.64a.57.57,0,0,0,.43-.18.6.6,0,0,0,.18-.43V17.62a.61.61,0,0,0-.61-.61h-.64Z"/><path class="cls-6" d="M27.69,23.09A1.69,1.69,0,0,1,26,21.4V17.54a1.69,1.69,0,0,1,2.89-1.2,1.67,1.67,0,0,1,.49,1.2v.8H28.27v-.83a.6.6,0,0,0-.18-.43.58.58,0,0,0-.43-.18.6.6,0,0,0-.44.18.63.63,0,0,0-.17.43v3.88a.61.61,0,0,0,.17.43.6.6,0,0,0,.44.18.61.61,0,0,0,.61-.61V20h-.59V18.93h1.7V21.4a1.64,1.64,0,0,1-.5,1.2A1.66,1.66,0,0,1,27.69,23.09Z"/><path class="cls-6" d="M31.37,23H30.3V15.92h1.07Z"/><path class="cls-6" d="M32.33,23V15.92h3V17h-2v1.93h1.44V20H33.39v1.93h2V23Z"/></svg>