<svg id="Layer_1" data-name="Layer 1" xmlns="http://www.w3.org/2000/svg" viewBox="0 0 24 24"><defs><style>.cls-1{fill:#db9d01;}.cls-2{fill:#ffb600;}.cls-3{fill:#1a1a1a;}.cls-4{fill:#e8eace;}.cls-5{fill:#423f40;}.cls-6{fill:#fff;}</style></defs><title>BadgieX24</title><polygon class="cls-1" points="14.29 23.31 10.46 15.21 15.84 12.67 19.67 20.77 16.36 20.73 14.29 23.31"/><polygon class="cls-2" points="10.88 23.26 14.69 15.21 9.34 12.69 5.54 20.73 8.82 20.7 10.88 23.26"/><path class="cls-3" d="M11.89,1.07c.21,0,.53-.39.74-.38s.47.45.68.48.59-.3.79-.25.39.52.59.58.63-.2.82-.12.3.58.49.67.65-.09.83,0,.2.62.36.75.67,0,.82.15.1.64.24.79.65.13.78.29,0,.65.11.82.62.23.72.41-.12.64,0,.83.57.33.64.53-.22.61-.16.81.51.42.55.62-.32.57-.3.78.44.5.44.7-.41.51-.42.72.35.56.32.77-.49.43-.54.63.25.61.19.81-.55.35-.63.54.15.65,0,.83-.6.25-.71.43,0,.66-.09.83-.63.15-.77.3-.07.66-.22.8-.65.05-.81.18-.18.63-.35.75-.65-.06-.83,0-.28.6-.47.68-.63-.16-.82-.09-.38.54-.58.59-.59-.27-.8-.23-.46.48-.66.5-.54-.37-.75-.36-.53.39-.74.38-.47-.45-.68-.48-.59.3-.79.25-.39-.52-.59-.58-.63.2-.82.12-.3-.58-.49-.68-.65.1-.83,0-.2-.62-.36-.75-.67,0-.82-.15-.1-.65-.24-.8-.65-.12-.78-.28,0-.65-.11-.83-.62-.22-.72-.41.12-.64,0-.83-.57-.32-.65-.52.23-.61.17-.81-.51-.42-.55-.63.32-.56.3-.77S3,10,3,9.78s.41-.5.42-.71-.35-.56-.32-.77.49-.43.54-.64-.25-.61-.19-.8.55-.35.63-.54-.15-.65,0-.83.6-.26.71-.43,0-.66.09-.83.63-.15.77-.3.07-.66.22-.8.65,0,.81-.18.18-.64.35-.75.65.06.83,0,.28-.6.47-.69.63.17.82.1S9.48,1,9.68,1s.59.27.8.24.46-.48.66-.5S11.68,1.07,11.89,1.07Z"/><path class="cls-4" d="M19.33,9.67A7.33,7.33,0,1,1,12,2.34,7.33,7.33,0,0,1,19.33,9.67Z"/><path class="cls-2" d="M18.83,9.67A6.83,6.83,0,1,1,12,2.84,6.83,6.83,0,0,1,18.83,9.67Z"/><path class="cls-2" d="M12,17.58A7.88,7.88,0,0,1,8.92,17a7.84,7.84,0,0,1-4.21-4.21,8,8,0,0,1,0-6.16A8.09,8.09,0,0,1,6.4,4.07,8,8,0,0,1,12,1.75a8,8,0,0,1,5.6,2.32,8.09,8.09,0,0,1,1.69,2.52,7.84,7.84,0,0,1,0,6.16A7.84,7.84,0,0,1,15.08,17,7.88,7.88,0,0,1,12,17.58ZM12,1.86a7.81,7.81,0,1,0,7.81,7.81A7.82,7.82,0,0,0,12,1.86Z"/><rect class="cls-5" x="7.66" y="6.99" width="8.75" height="0.09"/><rect class="cls-5" x="13.33" y="12.46" width="3.06" height="0.07"/><path class="cls-5" d="M16.39,12.53H13.33v-.07h3.06Zm-3.05,0h3.05v-.06H13.34Z"/><rect class="cls-5" x="7.63" y="12.46" width="3.04" height="0.07"/><path class="cls-5" d="M10.68,12.53h-3v-.07h3.05Zm-3,0h3v-.06h-3Z"/><path class="cls-4" d="M12.35,12.5a.34.34,0,1,1-.34-.34A.34.34,0,0,1,12.35,12.5Z"/><path class="cls-5" d="M13.08,12.49a.23.23,0,0,1-.23.22.23.23,0,1,1,0-.45A.23.23,0,0,1,13.08,12.49Z"/><path class="cls-5" d="M11.4,12.49a.22.22,0,0,1-.23.22.22.22,0,0,1-.22-.22.23.23,0,1,1,.45,0Z"/><path class="cls-6" d="M6.16,11.48V7.84H7A1,1,0,0,1,7.57,8a.78.78,0,0,1,.32.45,1.35,1.35,0,0,1,.05.38.86.86,0,0,1-.2.59.45.45,0,0,1-.19.14.64.64,0,0,1,.31.28,1,1,0,0,1,.13.36,1.81,1.81,0,0,1,0,.25,1.27,1.27,0,0,1-.13.58.86.86,0,0,1-.29.31.84.84,0,0,1-.42.12Zm.59-2.15H7a.33.33,0,0,0,.34-.25.75.75,0,0,0,0-.23.45.45,0,0,0-.11-.34A.33.33,0,0,0,7,8.4H6.75Zm0,1.61H7a.39.39,0,0,0,.39-.29.73.73,0,0,0,0-.22A.76.76,0,0,0,7.29,10,.39.39,0,0,0,7,9.86H6.75Z"/><path class="cls-6" d="M9.09,10.65,9,11.48H8.38L9,7.85h.76l.61,3.63H9.79l-.13-.83Zm.29-2-.21,1.43h.41Z"/><path class="cls-6" d="M12.55,10.61a.84.84,0,0,1-.25.62.82.82,0,0,1-.61.25h-.86V7.84h.86a.83.83,0,0,1,.61.26.82.82,0,0,1,.25.61Zm-1.17.33h.33a.29.29,0,0,0,.22-.09.33.33,0,0,0,.09-.22V8.72a.29.29,0,0,0-.09-.22.32.32,0,0,0-.22-.1h-.33Z"/><path class="cls-6" d="M13.9,11.53a.85.85,0,0,1-.87-.87v-2a.85.85,0,0,1,.87-.87.82.82,0,0,1,.61.25.85.85,0,0,1,.26.62v.41H14.2V8.67a.29.29,0,0,0-.1-.23.31.31,0,0,0-.44,0,.32.32,0,0,0-.09.23v2a.31.31,0,0,0,.09.22.31.31,0,0,0,.44,0,.28.28,0,0,0,.1-.22V9.94h-.31V9.39h.88v1.27a.85.85,0,0,1-.26.62A.82.82,0,0,1,13.9,11.53Z"/><path class="cls-6" d="M15.79,11.48h-.55V7.85h.55Z"/><path class="cls-6" d="M16.28,11.48V7.84h1.56V8.4h-1v1h.74v.55h-.74v1h1v.55Z"/></svg>