<?xml version="1.0" standalone="no"?>
<!DOCTYPE svg PUBLIC "-//W3C//DTD SVG 20010904//EN"
 "http://www.w3.org/TR/2001/REC-SVG-20010904/DTD/svg10.dtd">
<svg version="1.0" xmlns="http://www.w3.org/2000/svg"
 width="128.000000pt" height="128.000000pt" viewBox="0 0 128.000000 128.000000"
 preserveAspectRatio="xMidYMid meet">
<metadata>
Created by potrace 1.15, written by Peter Selinger 2001-2017
</metadata>
<g transform="translate(0.000000,128.000000) scale(0.100000,-0.100000)"
fill="#000000" stroke="none">
<path d="M591 1079 c-21 -17 -33 -19 -73 -14 -51 7 -98 -11 -98 -39 0 -20 -31
-43 -67 -51 -40 -8 -73 -48 -73 -88 0 -22 -10 -40 -41 -68 -36 -33 -41 -42
-35 -66 17 -68 18 -89 2 -102 -26 -22 -21 -83 10 -112 22 -21 25 -30 20 -66
-6 -49 17 -86 68 -107 24 -10 35 -22 39 -45 10 -47 40 -71 90 -71 36 0 48 -5
70 -30 30 -33 80 -41 117 -18 15 10 26 10 53 0 56 -20 90 -15 119 18 21 24 34
30 68 30 45 0 90 34 90 68 0 22 25 47 58 57 36 11 55 48 47 93 -5 34 -3 44 19
67 31 33 34 83 9 121 -14 21 -14 31 -5 58 23 62 17 77 -46 128 -14 11 -22 29
-22 47 0 16 -3 37 -6 46 -8 19 -55 45 -84 45 -13 0 -28 13 -41 35 -28 47 -50
58 -104 49 -36 -5 -49 -2 -71 15 -34 26 -82 26 -113 0z m-150 -380 c8 -16 8
-28 0 -45 -6 -15 -7 -25 -1 -29 16 -10 12 -62 -6 -79 -8 -9 -31 -16 -50 -16
l-34 0 0 95 0 95 40 0 c30 0 42 -5 51 -21z m224 10 c12 -19 8 -148 -5 -164 -7
-8 -28 -15 -46 -15 l-34 0 0 95 0 95 39 0 c22 0 43 -5 46 -11z"/>
</g>
</svg>
