<svg id="Layer_1" data-name="Layer 1" xmlns="http://www.w3.org/2000/svg" viewBox="0 0 128 128"><defs><style>.cls-1{fill:#db9d01;}.cls-2{fill:#ffb600;}.cls-3{fill:#1a1a1a;}.cls-4{fill:#e8eace;}.cls-5{fill:#423f40;}.cls-6{fill:#fff;}</style></defs><title>BadgieX128</title><polygon class="cls-1" points="75.93 123 55.95 80.75 84.02 67.48 104 109.73 86.74 109.55 75.93 123"/><polygon class="cls-2" points="58.17 122.73 78.01 80.76 50.13 67.58 30.29 109.55 47.43 109.37 58.17 122.73"/><path class="cls-3" d="M63.43,7c1.08,0,2.77-2.06,3.85-2s2.46,2.34,3.54,2.51,3.07-1.58,4.12-1.33S77,8.89,78,9.23s3.29-1.05,4.29-.63,1.57,3,2.53,3.52,3.42-.49,4.33.09,1.06,3.23,1.93,3.88,3.45.08,4.26.8.51,3.36,1.25,4.15,3.39.64,4.07,1.49-.05,3.4.55,4.3S104.48,28,105,29s-.6,3.34-.16,4.33,3,1.71,3.37,2.73-1.15,3.19-.87,4.24,2.68,2.18,2.87,3.25-1.66,3-1.56,4,2.28,2.59,2.3,3.68-2.13,2.65-2.21,3.73,1.83,2.93,1.67,4-2.54,2.27-2.79,3.32,1.32,3.2,1,4.22-2.87,1.82-3.3,2.82.78,3.36.28,4.32-3.14,1.32-3.72,2.24.21,3.45-.44,4.31-3.31.79-4,1.59S97,85.23,96.24,86s-3.39.23-4.24.91-.92,3.33-1.82,3.93-3.38-.33-4.33.2-1.45,3.13-2.44,3.58-3.28-.88-4.3-.52-2,2.85-3,3.13S73,95.79,72,96s-2.4,2.49-3.47,2.6-2.82-1.9-3.91-1.89-2.77,2.06-3.85,2-2.47-2.34-3.54-2.51-3.07,1.58-4.12,1.33S51,94.78,50,94.45s-3.29,1-4.29.62-1.57-3-2.53-3.51-3.42.49-4.34-.09-1-3.23-1.91-3.88-3.46-.08-4.26-.8-.52-3.36-1.26-4.15S28,82,27.32,81.15s.05-3.4-.55-4.3S23.52,75.66,23,74.71s.61-3.34.16-4.33-3-1.71-3.37-2.73,1.15-3.2.87-4.25S18,61.22,17.79,60.16s1.66-3,1.56-4-2.28-2.59-2.3-3.67,2.13-2.65,2.2-3.73-1.82-2.93-1.66-4,2.54-2.27,2.79-3.33-1.32-3.19-1-4.22,2.87-1.81,3.29-2.81S21.92,31,22.42,30s3.14-1.32,3.72-2.23-.21-3.45.44-4.31,3.31-.79,4-1.6.36-3.43,1.15-4.17,3.39-.24,4.24-.91.92-3.33,1.82-3.93,3.38.32,4.33-.2,1.45-3.14,2.44-3.58,3.29.88,4.3.51,2-2.84,3-3.12S55,7.89,56.05,7.69s2.4-2.48,3.48-2.59S62.34,7,63.43,7Z"/><path class="cls-4" d="M102.23,51.84A38.23,38.23,0,1,1,64,13.61,38.23,38.23,0,0,1,102.23,51.84Z"/><path class="cls-2" d="M99.61,51.84A35.61,35.61,0,1,1,64,16.23,35.61,35.61,0,0,1,99.61,51.84Z"/><path class="cls-2" d="M64,93.13A41.3,41.3,0,0,1,47.93,13.79,41.3,41.3,0,0,1,80.07,89.88,40.92,40.92,0,0,1,64,93.13Zm0-82a40.72,40.72,0,1,0,40.72,40.72A40.77,40.77,0,0,0,64,11.12Z"/><rect class="cls-5" x="41.34" y="37.86" width="45.67" height="0.46"/><rect class="cls-5" x="70.95" y="66.41" width="15.94" height="0.34"/><path class="cls-5" d="M86.9,66.77h-16V66.4h16ZM71,66.74H86.88v-.31H71Z"/><rect class="cls-5" x="41.22" y="66.41" width="15.85" height="0.34"/><path class="cls-5" d="M57.09,66.77H41.21V66.4H57.09Zm-15.85,0H57.06v-.31H41.24Z"/><path class="cls-4" d="M65.8,66.59a1.73,1.73,0,1,1-1.73-1.73A1.73,1.73,0,0,1,65.8,66.59Z"/><path class="cls-5" d="M69.61,66.54a1.18,1.18,0,1,1-1.18-1.19A1.18,1.18,0,0,1,69.61,66.54Z"/><path class="cls-5" d="M60.87,66.54a1.18,1.18,0,1,1-1.18-1.19A1.18,1.18,0,0,1,60.87,66.54Z"/><path class="cls-6" d="M33.53,61.31v-19h4.28a5.44,5.44,0,0,1,3.06.9,4.15,4.15,0,0,1,1.67,2.34,6.72,6.72,0,0,1,.27,2,4.45,4.45,0,0,1-1,3.06,2.81,2.81,0,0,1-1,.74,3.27,3.27,0,0,1,1.62,1.44,5.59,5.59,0,0,1,.66,1.87,7.7,7.7,0,0,1,.1,1.32,6.4,6.4,0,0,1-.68,3.06A4,4,0,0,1,41,60.64a4.09,4.09,0,0,1-2.16.67Zm3.09-11.23h1.19a1.76,1.76,0,0,0,1.79-1.31,3.72,3.72,0,0,0,.16-1.19,2.51,2.51,0,0,0-.57-1.79,1.82,1.82,0,0,0-1.38-.56H36.62Zm0,8.4h1.19a2,2,0,0,0,2-1.5A3.32,3.32,0,0,0,40,55.8a3.64,3.64,0,0,0-.6-2.32,2,2,0,0,0-1.61-.66H36.62Z"/><path class="cls-6" d="M48.82,57l-.7,4.36h-3l3.23-19H52.3l3.18,19h-3L51.8,57Zm1.5-10.27-1.06,7.48h2.12Z"/><path class="cls-6" d="M66.89,56.77A4.4,4.4,0,0,1,65.57,60a4.31,4.31,0,0,1-3.18,1.33h-4.5v-19h4.5a4.35,4.35,0,0,1,3.19,1.33,4.43,4.43,0,0,1,1.31,3.2Zm-6.14,1.71h1.73A1.52,1.52,0,0,0,63.63,58a1.65,1.65,0,0,0,.47-1.16V46.9a1.59,1.59,0,0,0-.48-1.17,1.57,1.57,0,0,0-1.14-.49H60.75Z"/><path class="cls-6" d="M73.9,61.55A4.54,4.54,0,0,1,69.35,57V46.67a4.55,4.55,0,0,1,7.76-3.21,4.43,4.43,0,0,1,1.31,3.21v2.16h-3V46.61A1.66,1.66,0,0,0,73.81,45a1.55,1.55,0,0,0-1.16.48,1.59,1.59,0,0,0-.48,1.17V57a1.64,1.64,0,0,0,1.64,1.63A1.62,1.62,0,0,0,75,58.16,1.6,1.6,0,0,0,75.46,57V53.27H73.87V50.39h4.55V57a4.34,4.34,0,0,1-1.33,3.21A4.4,4.4,0,0,1,73.9,61.55Z"/><path class="cls-6" d="M83.77,61.31H80.91v-19h2.86Z"/><path class="cls-6" d="M86.33,61.31v-19h8.14V45.2H89.19v5.18h3.86v2.88H89.19v5.17h5.28v2.88Z"/></svg>