<svg id="Layer_1" data-name="Layer 1" xmlns="http://www.w3.org/2000/svg" viewBox="0 0 16 16"><defs><style>.cls-1{fill:#db9d01;}.cls-2{fill:#ffb600;}.cls-3{fill:#1a1a1a;}.cls-4{fill:#e8eace;}.cls-5{fill:#423f40;}.cls-6{fill:#fff;}</style></defs><title>BadgieX16</title><polygon class="cls-1" points="9.52 15.54 6.97 10.14 10.56 8.45 13.11 13.85 10.91 13.82 9.52 15.54"/><polygon class="cls-2" points="7.25 15.51 9.79 10.14 6.23 8.46 3.69 13.82 5.88 13.8 7.25 15.51"/><path class="cls-3" d="M7.93.71c.14,0,.35-.26.49-.25s.31.3.45.32.39-.2.53-.17.26.35.39.39.42-.13.55-.08.2.39.32.45.44-.06.56,0,.13.41.24.5.44,0,.55.1.06.43.16.53.43.08.52.19,0,.43.07.55.41.15.48.27-.08.43,0,.56.38.21.43.34-.15.41-.11.55.34.28.37.41-.22.38-.2.52.29.33.29.47-.27.34-.28.48.23.37.21.51-.32.29-.36.42.17.41.13.54-.37.23-.42.36.1.43,0,.55-.4.17-.47.29,0,.44-.06.55-.42.1-.51.2,0,.44-.15.54-.43,0-.54.11-.12.43-.23.51-.44,0-.56,0-.18.4-.31.46-.42-.11-.55-.07-.25.37-.38.4-.4-.18-.53-.15-.31.32-.45.33-.36-.24-.5-.24-.35.26-.49.25-.31-.3-.45-.32-.39.2-.53.17-.26-.35-.39-.39-.42.14-.55.08-.2-.38-.32-.45-.44.07-.56,0-.13-.41-.24-.5-.44,0-.55-.1-.06-.43-.16-.53-.43-.08-.52-.19,0-.43-.07-.55-.41-.15-.48-.27.08-.43,0-.55-.38-.22-.43-.35.15-.41.11-.55-.34-.27-.37-.41.22-.38.2-.52S2,6.66,2,6.52s.27-.34.28-.47-.23-.38-.21-.52.32-.29.36-.42-.17-.41-.13-.54.37-.23.42-.36-.1-.43,0-.55.4-.17.47-.29,0-.44.06-.55.42-.1.51-.2,0-.44.15-.54.43,0,.54-.11.12-.43.23-.51.44.05.56,0S5.39,1,5.52,1s.42.11.55.07.25-.37.38-.4.4.18.53.15.31-.31.45-.33S7.79.72,7.93.71Z"/><path class="cls-4" d="M12.89,6.45A4.89,4.89,0,1,1,8,1.56,4.89,4.89,0,0,1,12.89,6.45Z"/><path class="cls-2" d="M12.55,6.45A4.55,4.55,0,1,1,8,1.89,4.55,4.55,0,0,1,12.55,6.45Z"/><path class="cls-2" d="M8,11.72a5.25,5.25,0,0,1-3.73-1.54A5.13,5.13,0,0,1,3.14,8.5a5.24,5.24,0,0,1,0-4.11A5.13,5.13,0,0,1,4.27,2.71a5.28,5.28,0,0,1,7.46,0,5.13,5.13,0,0,1,1.13,1.68,5.24,5.24,0,0,1,0,4.11,5.13,5.13,0,0,1-1.13,1.68A5.25,5.25,0,0,1,8,11.72ZM8,1.24a5.21,5.21,0,1,0,5.2,5.21A5.21,5.21,0,0,0,8,1.24Z"/><rect class="cls-5" x="5.1" y="4.66" width="5.84" height="0.06"/><rect class="cls-5" x="8.89" y="8.31" width="2.04" height="0.04"/><path class="cls-5" d="M10.93,8.35h-2v0h2Zm-2,0h2v0h-2Z"/><rect class="cls-5" x="5.09" y="8.31" width="2.03" height="0.04"/><path class="cls-5" d="M7.12,8.35h-2v0h2Zm-2,0h2v0h-2Z"/><path class="cls-4" d="M8.23,8.33A.22.22,0,1,1,8,8.11.22.22,0,0,1,8.23,8.33Z"/><path class="cls-5" d="M8.72,8.32a.15.15,0,0,1-.15.15.15.15,0,0,1-.16-.15.16.16,0,0,1,.16-.15A.15.15,0,0,1,8.72,8.32Z"/><path class="cls-5" d="M7.6,8.32a.15.15,0,0,1-.3,0,.15.15,0,1,1,.3,0Z"/><path class="cls-6" d="M4.11,7.66V5.23h.54A.71.71,0,0,1,5,5.34a.62.62,0,0,1,.22.3,1,1,0,0,1,0,.26.56.56,0,0,1-.13.39.45.45,0,0,1-.13.1.4.4,0,0,1,.21.18.52.52,0,0,1,.08.24.88.88,0,0,1,0,.17.8.8,0,0,1-.09.39.52.52,0,0,1-.19.2.51.51,0,0,1-.28.09ZM4.5,6.22h.15a.23.23,0,0,0,.23-.17.34.34,0,0,0,0-.15.32.32,0,0,0-.07-.23.27.27,0,0,0-.18-.07H4.5Zm0,1.07h.15a.26.26,0,0,0,.26-.19.33.33,0,0,0,0-.15.46.46,0,0,0-.08-.29.26.26,0,0,0-.21-.09H4.5Z"/><path class="cls-6" d="M6.06,7.1,6,7.66H5.59L6,5.23h.51l.4,2.43H6.53L6.44,7.1Zm.19-1.31-.13,1h.27Z"/><path class="cls-6" d="M8.37,7.08a.58.58,0,0,1-.17.41.57.57,0,0,1-.41.17H7.22V5.23h.57a.58.58,0,0,1,.58.58Zm-.79.21h.23A.2.2,0,0,0,8,7.23.2.2,0,0,0,8,7.08V5.81A.24.24,0,0,0,8,5.66a.2.2,0,0,0-.14-.06H7.58Z"/><path class="cls-6" d="M9.26,7.69a.58.58,0,0,1-.58-.58V5.78a.58.58,0,0,1,.58-.58.55.55,0,0,1,.41.17.56.56,0,0,1,.17.41v.28H9.46V5.78a.21.21,0,0,0-.21-.21.2.2,0,0,0-.14.06A.18.18,0,0,0,9,5.78V7.1a.18.18,0,0,0,.07.15.2.2,0,0,0,.14.06.2.2,0,0,0,.15-.06.2.2,0,0,0,.06-.14V6.63h-.2V6.26h.58v.85a.53.53,0,0,1-.17.41A.57.57,0,0,1,9.26,7.69Z"/><path class="cls-6" d="M10.53,7.66h-.37V5.23h.37Z"/><path class="cls-6" d="M10.85,7.66V5.23h1V5.6h-.67v.66h.49v.37h-.49v.66h.67v.37Z"/></svg>