<svg id="Layer_1" data-name="Layer 1" xmlns="http://www.w3.org/2000/svg" viewBox="0 0 32 32"><defs><style>.cls-1{fill:#db9d01;}.cls-2{fill:#ffb600;}.cls-3{fill:#1a1a1a;}.cls-4{fill:#e8eace;}.cls-5{fill:#423f40;}.cls-6{fill:#fff;}</style></defs><title>BadgieX32</title><polygon class="cls-1" points="19.03 31 13.95 20.26 21.09 16.88 26.17 27.63 21.78 27.58 19.03 31"/><polygon class="cls-2" points="14.52 30.93 19.56 20.26 12.47 16.91 7.43 27.58 11.79 27.54 14.52 30.93"/><path class="cls-3" d="M15.85,1.51c.28,0,.71-.53,1-.51s.63.59.9.64.78-.4,1.05-.34.52.69.78.78.84-.27,1.09-.16.41.76.65.89.87-.13,1.1,0,.27.82.49,1,.88,0,1.08.2.13.86.32,1.06.86.16,1,.38,0,.86.14,1.09.82.3,1,.54-.15.85,0,1.1.77.44.86.7S27,9.7,27,10s.68.55.73.82-.42.76-.4,1,.58.66.59.94-.55.67-.56.94.46.75.42,1-.65.58-.71.85.33.81.25,1.07-.73.46-.84.71.2.86.07,1.1-.8.34-.94.57.05.88-.12,1.1-.84.2-1,.4-.09.88-.29,1.07-.87.06-1.08.23-.23.84-.46,1-.86-.09-1.1.05-.37.79-.63.91-.83-.23-1.09-.13-.5.72-.76.79-.79-.36-1.06-.31-.61.63-.88.66-.72-.48-1-.48-.71.53-1,.51-.63-.6-.9-.64-.78.4-1,.34-.52-.69-.78-.78-.84.27-1.09.16-.4-.77-.65-.89-.87.12-1.1,0-.27-.82-.49-1S8.23,22,8,21.79s-.13-.85-.32-1.05-.86-.17-1-.38,0-.86-.14-1.09-.82-.31-1-.55.15-.85,0-1.1-.77-.43-.86-.69.29-.81.22-1.08-.68-.56-.73-.83.42-.75.4-1-.58-.66-.59-.94.54-.67.56-1-.46-.74-.42-1,.65-.57.71-.84-.33-.81-.25-1.07.73-.46.84-.72-.2-.85-.07-1.1.8-.33.94-.57,0-.87.12-1.09.84-.2,1-.41.09-.87.29-1.06S8.67,4.17,8.88,4s.23-.85.46-1,.86.08,1.1,0,.37-.8.63-.91.83.22,1.09.13.5-.72.76-.79.79.35,1.06.31.61-.64.88-.66S15.58,1.51,15.85,1.51Z"/><path class="cls-4" d="M25.72,12.91A9.72,9.72,0,1,1,16,3.19,9.72,9.72,0,0,1,25.72,12.91Z"/><path class="cls-2" d="M25.05,12.91a9.05,9.05,0,1,1-9-9.06A9,9,0,0,1,25.05,12.91Z"/><path class="cls-2" d="M16,23.41A10.5,10.5,0,0,1,6.33,8.82,10.32,10.32,0,0,1,8.58,5.49a10.16,10.16,0,0,1,3.33-2.25,10.49,10.49,0,0,1,8.18,0,10.16,10.16,0,0,1,3.33,2.25,10.32,10.32,0,0,1,2.25,3.33A10.5,10.5,0,0,1,16,23.41ZM16,2.56A10.35,10.35,0,1,0,26.35,12.91,10.36,10.36,0,0,0,16,2.56Z"/><rect class="cls-5" x="10.24" y="9.35" width="11.61" height="0.12"/><rect class="cls-5" x="17.77" y="16.61" width="4.05" height="0.09"/><path class="cls-5" d="M21.82,16.7H17.76v-.09h4.06Zm-4.05,0h4.05v-.08H17.77Z"/><rect class="cls-5" x="10.21" y="16.61" width="4.03" height="0.09"/><path class="cls-5" d="M14.24,16.7h-4v-.09h4Zm-4,0h4v-.08h-4Z"/><path class="cls-4" d="M16.46,16.66a.44.44,0,0,1-.88,0,.44.44,0,0,1,.88,0Z"/><path class="cls-5" d="M17.43,16.64a.3.3,0,0,1-.3.3.29.29,0,0,1-.3-.3.3.3,0,0,1,.3-.3A.31.31,0,0,1,17.43,16.64Z"/><path class="cls-5" d="M15.2,16.64a.29.29,0,0,1-.3.3.3.3,0,0,1-.3-.3.31.31,0,0,1,.3-.3A.3.3,0,0,1,15.2,16.64Z"/><path class="cls-6" d="M8.25,15.32V10.49H9.34a1.33,1.33,0,0,1,.78.23,1,1,0,0,1,.42.59,1.61,1.61,0,0,1,.07.51,1.08,1.08,0,0,1-.26.78.67.67,0,0,1-.25.19.8.8,0,0,1,.41.37,1.36,1.36,0,0,1,.17.47,1.83,1.83,0,0,1,0,.34,1.6,1.6,0,0,1-.17.78,1.12,1.12,0,0,1-.38.4,1.07,1.07,0,0,1-.55.17ZM9,12.46h.3a.45.45,0,0,0,.46-.33,1.23,1.23,0,0,0,0-.31.61.61,0,0,0-.15-.45.47.47,0,0,0-.35-.14H9ZM9,14.6h.3a.51.51,0,0,0,.51-.38.73.73,0,0,0,.05-.3.93.93,0,0,0-.15-.59.48.48,0,0,0-.41-.17H9Z"/><path class="cls-6" d="M12.14,14.21,12,15.32h-.75L12,10.49h1l.8,4.83h-.76l-.17-1.11Zm.38-2.61-.27,1.9h.54Z"/><path class="cls-6" d="M16.73,14.16a1.14,1.14,0,0,1-.33.82,1.11,1.11,0,0,1-.81.34H14.45V10.49h1.14a1.07,1.07,0,0,1,.81.34,1.1,1.1,0,0,1,.33.81Zm-1.56.44h.44a.42.42,0,0,0,.3-.13.4.4,0,0,0,.12-.29V11.65a.45.45,0,0,0-.13-.3.38.38,0,0,0-.29-.12h-.44Z"/><path class="cls-6" d="M18.52,15.38a1.16,1.16,0,0,1-1.16-1.15V11.59a1.07,1.07,0,0,1,.34-.81,1.11,1.11,0,0,1,.82-.34,1.07,1.07,0,0,1,.81.34,1.09,1.09,0,0,1,.34.81v.55h-.76v-.56a.41.41,0,0,0-.42-.42.4.4,0,0,0-.29.12.41.41,0,0,0-.12.3v2.64a.41.41,0,0,0,.41.41.41.41,0,0,0,.3-.12.38.38,0,0,0,.12-.29v-1h-.4v-.73h1.16v1.69a1.16,1.16,0,0,1-1.15,1.15Z"/><path class="cls-6" d="M21,15.32H20.3V10.49H21Z"/><path class="cls-6" d="M21.68,15.32V10.49h2.07v.73H22.4v1.32h1v.73h-1v1.31h1.35v.74Z"/></svg>