<?xml version="1.0" standalone="no"?>
<!DOCTYPE svg PUBLIC "-//W3C//DTD SVG 20010904//EN"
 "http://www.w3.org/TR/2001/REC-SVG-20010904/DTD/svg10.dtd">
<svg version="1.0" xmlns="http://www.w3.org/2000/svg"
 width="64.000000pt" height="64.000000pt" viewBox="0 0 64.000000 64.000000"
 preserveAspectRatio="xMidYMid meet">
<metadata>
Created by potrace 1.15, written by Peter Selinger 2001-2017
</metadata>
<g transform="translate(0.000000,64.000000) scale(0.100000,-0.100000)"
fill="#000000" stroke="none">
<path d="M290 540 c-8 -5 -24 -7 -36 -4 -15 4 -29 -2 -42 -17 -12 -12 -31 -27
-44 -33 -12 -6 -24 -20 -26 -31 -2 -11 -13 -30 -24 -42 -15 -16 -18 -29 -13
-51 3 -18 2 -33 -4 -37 -16 -9 -13 -41 4 -55 9 -7 13 -21 9 -35 -4 -17 2 -28
22 -44 15 -12 32 -32 38 -44 7 -12 23 -24 36 -25 14 -2 29 -8 35 -13 12 -12
142 -12 150 1 3 6 16 10 29 10 23 0 56 28 56 47 0 5 11 15 25 21 18 9 25 19
25 41 0 16 5 33 10 36 15 9 6 136 -11 149 -8 6 -19 25 -24 41 -7 19 -18 31
-32 33 -12 2 -29 14 -38 28 -13 21 -22 24 -45 19 -16 -3 -31 -2 -35 4 -8 13
-45 14 -65 1z"/>
</g>
</svg>
