<svg id="Layer_1" data-name="Layer 1" xmlns="http://www.w3.org/2000/svg" viewBox="0 0 64 64"><defs><style>.cls-1{fill:#db9d01;}.cls-2{fill:#ffb600;}.cls-3{fill:#1a1a1a;}.cls-4{fill:#e8eace;}.cls-5{fill:#423f40;}.cls-6{fill:#fff;}</style></defs><title>BadgieX64</title><polygon class="cls-1" points="37.86 61 28.05 40.23 41.84 33.71 51.66 54.48 43.18 54.39 37.86 61"/><polygon class="cls-2" points="29.14 60.87 38.89 40.24 25.18 33.76 15.43 54.39 23.86 54.3 29.14 60.87"/><path class="cls-3" d="M31.72,4c.53,0,1.36-1,1.89-1s1.21,1.15,1.74,1.23,1.51-.77,2-.65,1,1.33,1.51,1.5,1.62-.52,2.11-.31.77,1.48,1.24,1.73,1.69-.24,2.13,0,.52,1.59,1,1.91,1.69,0,2.09.39.25,1.66.62,2,1.67.32,2,.74,0,1.67.27,2.11,1.59.58,1.85,1-.29,1.64-.07,2.13,1.47.84,1.65,1.34-.57,1.57-.43,2.09,1.32,1.07,1.41,1.59-.81,1.46-.76,2,1.12,1.27,1.13,1.81S54,27,54,27.56s.9,1.44.82,2-1.25,1.11-1.37,1.63.65,1.57.48,2.08-1.41.89-1.62,1.38.38,1.65.14,2.13-1.54.64-1.83,1.09.1,1.7-.22,2.12-1.62.39-2,.79-.18,1.68-.56,2-1.67.11-2.09.45-.45,1.63-.89,1.93-1.66-.16-2.13.1S42,46.82,41.54,47s-1.61-.44-2.12-.26-1,1.4-1.47,1.54-1.52-.69-2-.6S34.73,48.94,34.2,49s-1.38-.94-1.92-.93-1.36,1-1.89,1-1.21-1.14-1.74-1.23-1.51.78-2,.65-1-1.33-1.51-1.5-1.62.52-2.11.31-.77-1.48-1.24-1.72-1.69.24-2.13,0-.52-1.59-.95-1.91-1.7,0-2.09-.39-.25-1.65-.62-2-1.67-.32-2-.73,0-1.67-.27-2.11-1.59-.59-1.85-1.06.29-1.64.07-2.12-1.47-.84-1.65-1.35.57-1.57.43-2.08-1.32-1.07-1.41-1.6.81-1.46.76-2-1.12-1.27-1.13-1.8S10,25,10,24.48s-.9-1.44-.82-2,1.25-1.12,1.37-1.64-.65-1.57-.48-2.07,1.41-.89,1.62-1.38-.38-1.66-.14-2.13,1.54-.65,1.83-1.1-.1-1.69.22-2.12,1.62-.38,2-.78.18-1.69.56-2.05,1.67-.12,2.09-.45.45-1.64.89-1.93,1.66.16,2.13-.1S22,5.23,22.46,5s1.61.43,2.11.25,1-1.4,1.48-1.53,1.52.69,2,.59S29.27,3.1,29.8,3.05,31.19,4,31.72,4Z"/><path class="cls-4" d="M50.79,26A18.79,18.79,0,1,1,32,7.23,18.79,18.79,0,0,1,50.79,26Z"/><path class="cls-2" d="M49.5,26A17.5,17.5,0,1,1,32,8.52,17.5,17.5,0,0,1,49.5,26Z"/><path class="cls-2" d="M32,46.32a20.32,20.32,0,0,1-18.7-28.2A20.38,20.38,0,0,1,24.1,7.32a20.42,20.42,0,0,1,15.8,0,20.38,20.38,0,0,1,10.8,10.8,20.27,20.27,0,0,1-4.35,22.25,20.26,20.26,0,0,1-14.35,6ZM32,6A20,20,0,1,0,52,26,20,20,0,0,0,32,6Z"/><rect class="cls-5" x="20.86" y="19.15" width="22.45" height="0.23"/><rect class="cls-5" x="35.42" y="33.19" width="7.83" height="0.17"/><path class="cls-5" d="M43.26,33.36H35.41v-.18h7.85Zm-7.83,0h7.81v-.16H35.43Z"/><rect class="cls-5" x="20.81" y="33.19" width="7.79" height="0.17"/><path class="cls-5" d="M28.6,33.36H20.8v-.18h7.8Zm-7.79,0h7.78v-.16H20.81Z"/><path class="cls-4" d="M32.89,33.27a.85.85,0,1,1-.85-.85A.85.85,0,0,1,32.89,33.27Z"/><path class="cls-5" d="M34.76,33.25a.58.58,0,1,1-.58-.58A.58.58,0,0,1,34.76,33.25Z"/><path class="cls-5" d="M30.46,33.25a.58.58,0,1,1-.58-.58A.58.58,0,0,1,30.46,33.25Z"/><path class="cls-6" d="M17,30.68V21.34h2.11a2.72,2.72,0,0,1,1.5.44,2.06,2.06,0,0,1,.82,1.16,3.26,3.26,0,0,1,.13,1,2.2,2.2,0,0,1-.49,1.5,1.52,1.52,0,0,1-.5.37,1.57,1.57,0,0,1,.8.7,2.89,2.89,0,0,1,.32.93,3.75,3.75,0,0,1-.28,2.15,2.19,2.19,0,0,1-1.8,1.1Zm1.52-5.52h.59a.88.88,0,0,0,.88-.64,2,2,0,0,0,.08-.59,1.23,1.23,0,0,0-.29-.88.88.88,0,0,0-.67-.28h-.59Zm0,4.13h.59a1,1,0,0,0,1-.74,1.72,1.72,0,0,0,.09-.58,1.83,1.83,0,0,0-.29-1.14,1,1,0,0,0-.79-.33h-.59Z"/><path class="cls-6" d="M24.54,28.53l-.35,2.15H22.73l1.59-9.33h1.93l1.56,9.33H26.33L26,28.53Zm.74-5-.53,3.68H25.8Z"/><path class="cls-6" d="M33.42,28.45A2.15,2.15,0,0,1,32.77,30a2.1,2.1,0,0,1-1.56.66H29V21.34h2.21a2.09,2.09,0,0,1,1.56.66,2.17,2.17,0,0,1,.65,1.57Zm-3,.84h.85a.74.74,0,0,0,.57-.25.8.8,0,0,0,.23-.56V23.59a.78.78,0,0,0-.24-.57.74.74,0,0,0-.56-.24H30.4Z"/><path class="cls-6" d="M36.86,30.8a2.24,2.24,0,0,1-2.23-2.23V23.48a2.13,2.13,0,0,1,.66-1.58,2.23,2.23,0,0,1,3.15,0,2.19,2.19,0,0,1,.65,1.58v1.07H37.63v-1.1a.81.81,0,0,0-1.38-.57.77.77,0,0,0-.23.57v5.11a.77.77,0,0,0,.23.57.82.82,0,0,0,1.14,0,.78.78,0,0,0,.24-.57V26.73h-.78V25.31h2.24v3.26a2.13,2.13,0,0,1-.66,1.58A2.15,2.15,0,0,1,36.86,30.8Z"/><path class="cls-6" d="M41.72,30.68H40.31V21.35h1.41Z"/><path class="cls-6" d="M43,30.68V21.34h4v1.42h-2.6V25.3h1.9v1.42h-1.9v2.54H47v1.42Z"/></svg>